<?xml version="1.0" encoding="utf-8"?>
<!-- Generator: Adobe Illustrator 19.0.0, SVG Export Plug-In . SVG Version: 6.00 Build 0)  -->
<svg version="1.1" id="Layer_1" xmlns="http://www.w3.org/2000/svg" xmlns:xlink="http://www.w3.org/1999/xlink" x="0px" y="0px"
	 viewBox="-55 147 500 500" style="enable-background:new -55 147 500 500;" xml:space="preserve">
<style type="text/css">
	.st0{fill:#8BC34A;stroke:#FFFFFF;stroke-width:3;stroke-miterlimit:10;}
	.st1{fill:#FFFFFF;}
	.st2{fill:none;stroke:#000000;stroke-width:14.7268;stroke-linecap:round;stroke-linejoin:round;stroke-miterlimit:3.8637;}
	.st3{fill:none;stroke:#FFFFFF;stroke-width:10;stroke-linecap:round;stroke-linejoin:round;stroke-miterlimit:3.8637;}
	.st4{fill:none;stroke:#FFFFFF;stroke-width:40;stroke-miterlimit:10;}
</style>
<g id="Fondo">
	<g>
		<polygon points="-55,147 -55,147 -55,147 		"/>
		<polygon points="445,147 445,147 445,147 		"/>
		<polygon points="-55,647 -55,647 -55,647 		"/>
		<polygon points="445,647 445,647 445,647 		"/>
	</g>
</g>
<g id="contorno2">
	<path class="st0" d="M380.7,612.7H9.3c-16.5,0-30-13.5-30-30V211.3c0-16.5,13.5-30,30-30h371.4c16.5,0,30,13.5,30,30v371.4
		C410.7,599.2,397.2,612.7,380.7,612.7z"/>
	<rect x="19.2" y="220" class="st1" width="225.7" height="225.7"/>
	<g>
		<path d="M116.9,304.1c-8.6-28.5,8-32,27.2-34.7c19-2.7,32.6,28.5,54.1,83.8c11.4-8.5,28.1-19.9,50.1-1.3
			c43.9-21.1,48.2-1.3,48.2-1.3s23.8-11.7,40.3,12.5c15.1,21.8,45.6,54.5,60.1,94c13.3,55.8,4.7,74.6,13.2,115.8
			c0,0.2,0,21.8,0,21.8s0,2.8-1.7,6.3c-3.8,7.8-12.4,11.5-15.1,11.5c-35.6,0.5-42.1,0-115.3,0.2c-3.8-0.2-10-22.3-74.6-63.2
			c-64.6-40.8-67.4-74-94.9-90.5c-8.8-18.3,21.5-40.7,76.3-3.1C184.8,455.9,125.5,332.7,116.9,304.1z"/>
		<path class="st1" d="M125,290.4c0,0,8.5-12.9,23.8-10.5c7.2,7.2,12.1,17.2,4,22.1c-8.1,5-18.2,10.6-22.1,2.9
			C126.7,297.3,125,290.4,125,290.4z"/>
	</g>
</g>
<g id="contorno">
	<g>
		<polyline class="st2" points="19.2,576.3 19.2,217.7 370.8,217.7 		"/>
		<polyline class="st2" points="247.5,217.7 247.2,445.6 19.2,445.6 		"/>
	</g>
	<g>
		<path class="st3" d="M209.7,510.1c0,0-46.5-101.6-64.8-141.7c-18.3-40.1-37.2-71.1-28.7-87c6.5-12.2,18.6-13.9,30.9-13
			c12.2,0.9,24.3,23,32,39.9c7.6,16.9,51.9,114.6,51.9,114.6"/>
		<path class="st3" d="M200.9,352.4c0,0,21.1-22.3,40.4-6c13.1,11,26,34,32.3,52.1"/>
		<path class="st3" d="M246.9,351.8c0,0,31.6-17.9,44.4-7c12.8,11,20.7,42.8,26.6,47"/>
		<path class="st3" d="M278,617.7c-3.4-3.9-10-27.2-74.6-68.1c-64.6-40.8-67.4-74-94.9-90.5c-8.8-18.3,21.5-40.7,76.3-3.1"/>
		<path class="st3" d="M296.4,350.8c0,0,23.8-11.7,40.3,12.5c15.1,21.8,45.6,54.5,60.1,94c13.3,55.8,6.1,79.5,19.8,119.3"/>
	</g>
	<path class="st4" d="M380.4,627.4H9.6c-24.8,0-45-20.3-45-45V211.6c0-24.8,20.3-45,45-45h370.8c24.8,0,45,20.3,45,45v370.8
		C425.4,607.2,405.2,627.4,380.4,627.4z"/>
</g>
</svg>
